<mxfile host="app.diagrams.net" modified="2024-04-13T02:08:17.164Z" agent="Mozilla/5.0 (Windows NT 10.0; Win64; x64; rv:124.0) Gecko/20100101 Firefox/124.0" etag="7HdyhdKLIRvPPQkC-wNM" version="24.2.3" type="github">
  <diagram id="C5RBs43oDa-KdzZeNtuy" name="Page-1">
    <mxGraphModel dx="1518" dy="679" grid="1" gridSize="10" guides="1" tooltips="1" connect="1" arrows="1" fold="1" page="1" pageScale="1" pageWidth="827" pageHeight="1169" math="0" shadow="0">
      <root>
        <mxCell id="WIyWlLk6GJQsqaUBKTNV-0" />
        <mxCell id="WIyWlLk6GJQsqaUBKTNV-1" parent="WIyWlLk6GJQsqaUBKTNV-0" />
        <mxCell id="nEtuRUCeHnnsEgfaFvNi-16" style="edgeStyle=orthogonalEdgeStyle;rounded=0;orthogonalLoop=1;jettySize=auto;html=1;exitX=0.5;exitY=1;exitDx=0;exitDy=0;" edge="1" parent="WIyWlLk6GJQsqaUBKTNV-1" source="nEtuRUCeHnnsEgfaFvNi-0" target="nEtuRUCeHnnsEgfaFvNi-1">
          <mxGeometry relative="1" as="geometry" />
        </mxCell>
        <mxCell id="nEtuRUCeHnnsEgfaFvNi-0" value="Program Start" style="ellipse;whiteSpace=wrap;html=1;" vertex="1" parent="WIyWlLk6GJQsqaUBKTNV-1">
          <mxGeometry x="330" y="90" width="130" height="70" as="geometry" />
        </mxCell>
        <mxCell id="nEtuRUCeHnnsEgfaFvNi-22" style="edgeStyle=orthogonalEdgeStyle;rounded=0;orthogonalLoop=1;jettySize=auto;html=1;exitX=0.5;exitY=1;exitDx=0;exitDy=0;entryX=0.5;entryY=0;entryDx=0;entryDy=0;" edge="1" parent="WIyWlLk6GJQsqaUBKTNV-1" source="nEtuRUCeHnnsEgfaFvNi-1" target="nEtuRUCeHnnsEgfaFvNi-3">
          <mxGeometry relative="1" as="geometry" />
        </mxCell>
        <mxCell id="nEtuRUCeHnnsEgfaFvNi-1" value="Display Menu&lt;br&gt;Scene" style="shape=parallelogram;perimeter=parallelogramPerimeter;whiteSpace=wrap;html=1;fixedSize=1;" vertex="1" parent="WIyWlLk6GJQsqaUBKTNV-1">
          <mxGeometry x="335" y="200" width="120" height="60" as="geometry" />
        </mxCell>
        <mxCell id="nEtuRUCeHnnsEgfaFvNi-10" style="edgeStyle=orthogonalEdgeStyle;rounded=0;orthogonalLoop=1;jettySize=auto;html=1;exitX=0;exitY=0.5;exitDx=0;exitDy=0;entryX=0.5;entryY=0;entryDx=0;entryDy=0;entryPerimeter=0;" edge="1" parent="WIyWlLk6GJQsqaUBKTNV-1" source="nEtuRUCeHnnsEgfaFvNi-3" target="nEtuRUCeHnnsEgfaFvNi-17">
          <mxGeometry relative="1" as="geometry">
            <mxPoint x="220" y="400" as="targetPoint" />
          </mxGeometry>
        </mxCell>
        <mxCell id="nEtuRUCeHnnsEgfaFvNi-3" value="User Click" style="rhombus;whiteSpace=wrap;html=1;" vertex="1" parent="WIyWlLk6GJQsqaUBKTNV-1">
          <mxGeometry x="350" y="290" width="80" height="80" as="geometry" />
        </mxCell>
        <mxCell id="nEtuRUCeHnnsEgfaFvNi-9" style="edgeStyle=orthogonalEdgeStyle;rounded=0;orthogonalLoop=1;jettySize=auto;html=1;exitX=0;exitY=0.5;exitDx=0;exitDy=0;" edge="1" parent="WIyWlLk6GJQsqaUBKTNV-1" target="nEtuRUCeHnnsEgfaFvNi-7">
          <mxGeometry relative="1" as="geometry">
            <mxPoint x="170" y="430" as="sourcePoint" />
          </mxGeometry>
        </mxCell>
        <mxCell id="nEtuRUCeHnnsEgfaFvNi-7" value="Program Exit" style="ellipse;whiteSpace=wrap;html=1;" vertex="1" parent="WIyWlLk6GJQsqaUBKTNV-1">
          <mxGeometry x="10" y="620" width="120" height="80" as="geometry" />
        </mxCell>
        <mxCell id="nEtuRUCeHnnsEgfaFvNi-8" value="" style="triangle;whiteSpace=wrap;html=1;" vertex="1" parent="WIyWlLk6GJQsqaUBKTNV-1">
          <mxGeometry x="460" y="110" width="14" height="30" as="geometry" />
        </mxCell>
        <mxCell id="nEtuRUCeHnnsEgfaFvNi-12" style="edgeStyle=orthogonalEdgeStyle;rounded=0;orthogonalLoop=1;jettySize=auto;html=1;exitX=1;exitY=0.5;exitDx=0;exitDy=0;" edge="1" parent="WIyWlLk6GJQsqaUBKTNV-1" source="nEtuRUCeHnnsEgfaFvNi-3" target="nEtuRUCeHnnsEgfaFvNi-20">
          <mxGeometry relative="1" as="geometry">
            <mxPoint x="500" y="410" as="targetPoint" />
          </mxGeometry>
        </mxCell>
        <mxCell id="nEtuRUCeHnnsEgfaFvNi-17" value="Quit" style="strokeWidth=2;html=1;shape=mxgraph.flowchart.display;whiteSpace=wrap;" vertex="1" parent="WIyWlLk6GJQsqaUBKTNV-1">
          <mxGeometry x="170" y="400" width="100" height="60" as="geometry" />
        </mxCell>
        <mxCell id="nEtuRUCeHnnsEgfaFvNi-18" value="Start" style="strokeWidth=2;html=1;shape=mxgraph.flowchart.display;whiteSpace=wrap;" vertex="1" parent="WIyWlLk6GJQsqaUBKTNV-1">
          <mxGeometry x="340" y="420" width="100" height="60" as="geometry" />
        </mxCell>
        <mxCell id="nEtuRUCeHnnsEgfaFvNi-19" style="edgeStyle=orthogonalEdgeStyle;rounded=0;orthogonalLoop=1;jettySize=auto;html=1;exitX=0.5;exitY=1;exitDx=0;exitDy=0;" edge="1" parent="WIyWlLk6GJQsqaUBKTNV-1" source="nEtuRUCeHnnsEgfaFvNi-3" target="nEtuRUCeHnnsEgfaFvNi-18">
          <mxGeometry relative="1" as="geometry" />
        </mxCell>
        <mxCell id="nEtuRUCeHnnsEgfaFvNi-20" value="Tutorial" style="strokeWidth=2;html=1;shape=mxgraph.flowchart.display;whiteSpace=wrap;" vertex="1" parent="WIyWlLk6GJQsqaUBKTNV-1">
          <mxGeometry x="490" y="420" width="100" height="60" as="geometry" />
        </mxCell>
        <mxCell id="nEtuRUCeHnnsEgfaFvNi-23" value="Options" style="swimlane;fontStyle=0;childLayout=stackLayout;horizontal=1;startSize=30;horizontalStack=0;resizeParent=1;resizeParentMax=0;resizeLast=0;collapsible=1;marginBottom=0;whiteSpace=wrap;html=1;" vertex="1" parent="WIyWlLk6GJQsqaUBKTNV-1">
          <mxGeometry x="450" y="620" width="140" height="120" as="geometry" />
        </mxCell>
        <mxCell id="nEtuRUCeHnnsEgfaFvNi-24" value="Environment size" style="text;strokeColor=none;fillColor=none;align=left;verticalAlign=middle;spacingLeft=4;spacingRight=4;overflow=hidden;points=[[0,0.5],[1,0.5]];portConstraint=eastwest;rotatable=0;whiteSpace=wrap;html=1;" vertex="1" parent="nEtuRUCeHnnsEgfaFvNi-23">
          <mxGeometry y="30" width="140" height="30" as="geometry" />
        </mxCell>
        <mxCell id="nEtuRUCeHnnsEgfaFvNi-25" value="Obstacle saturation" style="text;strokeColor=none;fillColor=none;align=left;verticalAlign=middle;spacingLeft=4;spacingRight=4;overflow=hidden;points=[[0,0.5],[1,0.5]];portConstraint=eastwest;rotatable=0;whiteSpace=wrap;html=1;" vertex="1" parent="nEtuRUCeHnnsEgfaFvNi-23">
          <mxGeometry y="60" width="140" height="30" as="geometry" />
        </mxCell>
        <mxCell id="nEtuRUCeHnnsEgfaFvNi-26" value="Start/Stop location" style="text;strokeColor=none;fillColor=none;align=left;verticalAlign=middle;spacingLeft=4;spacingRight=4;overflow=hidden;points=[[0,0.5],[1,0.5]];portConstraint=eastwest;rotatable=0;whiteSpace=wrap;html=1;" vertex="1" parent="nEtuRUCeHnnsEgfaFvNi-23">
          <mxGeometry y="90" width="140" height="30" as="geometry" />
        </mxCell>
        <mxCell id="nEtuRUCeHnnsEgfaFvNi-29" style="edgeStyle=orthogonalEdgeStyle;rounded=0;orthogonalLoop=1;jettySize=auto;html=1;exitX=1;exitY=0.5;exitDx=0;exitDy=0;exitPerimeter=0;entryX=0.5;entryY=0;entryDx=0;entryDy=0;" edge="1" parent="WIyWlLk6GJQsqaUBKTNV-1" source="nEtuRUCeHnnsEgfaFvNi-27" target="nEtuRUCeHnnsEgfaFvNi-23">
          <mxGeometry relative="1" as="geometry" />
        </mxCell>
        <mxCell id="nEtuRUCeHnnsEgfaFvNi-51" style="edgeStyle=orthogonalEdgeStyle;rounded=0;orthogonalLoop=1;jettySize=auto;html=1;" edge="1" parent="WIyWlLk6GJQsqaUBKTNV-1" source="nEtuRUCeHnnsEgfaFvNi-27" target="nEtuRUCeHnnsEgfaFvNi-52">
          <mxGeometry relative="1" as="geometry">
            <mxPoint x="160" y="1381" as="targetPoint" />
          </mxGeometry>
        </mxCell>
        <mxCell id="nEtuRUCeHnnsEgfaFvNi-27" value="Simulation Map Generation Scene" style="strokeWidth=2;html=1;shape=mxgraph.flowchart.display;whiteSpace=wrap;" vertex="1" parent="WIyWlLk6GJQsqaUBKTNV-1">
          <mxGeometry x="262.5" y="560" width="110" height="80" as="geometry" />
        </mxCell>
        <mxCell id="nEtuRUCeHnnsEgfaFvNi-28" style="edgeStyle=orthogonalEdgeStyle;rounded=0;orthogonalLoop=1;jettySize=auto;html=1;exitX=0;exitY=0.5;exitDx=0;exitDy=0;exitPerimeter=0;entryX=0.5;entryY=0.167;entryDx=0;entryDy=0;entryPerimeter=0;" edge="1" parent="WIyWlLk6GJQsqaUBKTNV-1" source="nEtuRUCeHnnsEgfaFvNi-18" target="nEtuRUCeHnnsEgfaFvNi-27">
          <mxGeometry relative="1" as="geometry" />
        </mxCell>
        <mxCell id="nEtuRUCeHnnsEgfaFvNi-30" style="edgeStyle=orthogonalEdgeStyle;rounded=0;orthogonalLoop=1;jettySize=auto;html=1;entryX=0.5;entryY=1;entryDx=0;entryDy=0;entryPerimeter=0;" edge="1" parent="WIyWlLk6GJQsqaUBKTNV-1" source="nEtuRUCeHnnsEgfaFvNi-23" target="nEtuRUCeHnnsEgfaFvNi-27">
          <mxGeometry relative="1" as="geometry" />
        </mxCell>
        <mxCell id="nEtuRUCeHnnsEgfaFvNi-49" style="edgeStyle=orthogonalEdgeStyle;rounded=0;orthogonalLoop=1;jettySize=auto;html=1;exitX=0.5;exitY=1;exitDx=0;exitDy=0;entryX=0.5;entryY=0;entryDx=0;entryDy=0;" edge="1" parent="WIyWlLk6GJQsqaUBKTNV-1" source="nEtuRUCeHnnsEgfaFvNi-31" target="nEtuRUCeHnnsEgfaFvNi-33">
          <mxGeometry relative="1" as="geometry" />
        </mxCell>
        <mxCell id="nEtuRUCeHnnsEgfaFvNi-59" style="edgeStyle=orthogonalEdgeStyle;rounded=0;orthogonalLoop=1;jettySize=auto;html=1;exitX=0;exitY=1;exitDx=0;exitDy=0;" edge="1" parent="WIyWlLk6GJQsqaUBKTNV-1" source="nEtuRUCeHnnsEgfaFvNi-31" target="nEtuRUCeHnnsEgfaFvNi-38">
          <mxGeometry relative="1" as="geometry" />
        </mxCell>
        <mxCell id="nEtuRUCeHnnsEgfaFvNi-31" value="Map Confirmation" style="rhombus;whiteSpace=wrap;html=1;" vertex="1" parent="WIyWlLk6GJQsqaUBKTNV-1">
          <mxGeometry x="262.5" y="740" width="125" height="100" as="geometry" />
        </mxCell>
        <mxCell id="nEtuRUCeHnnsEgfaFvNi-32" style="edgeStyle=orthogonalEdgeStyle;rounded=0;orthogonalLoop=1;jettySize=auto;html=1;entryX=0.924;entryY=0.59;entryDx=0;entryDy=0;entryPerimeter=0;" edge="1" parent="WIyWlLk6GJQsqaUBKTNV-1" source="nEtuRUCeHnnsEgfaFvNi-23" target="nEtuRUCeHnnsEgfaFvNi-31">
          <mxGeometry relative="1" as="geometry" />
        </mxCell>
        <mxCell id="nEtuRUCeHnnsEgfaFvNi-58" style="edgeStyle=orthogonalEdgeStyle;rounded=0;orthogonalLoop=1;jettySize=auto;html=1;" edge="1" parent="WIyWlLk6GJQsqaUBKTNV-1" source="nEtuRUCeHnnsEgfaFvNi-33" target="nEtuRUCeHnnsEgfaFvNi-31">
          <mxGeometry relative="1" as="geometry" />
        </mxCell>
        <mxCell id="nEtuRUCeHnnsEgfaFvNi-33" value="Options" style="swimlane;fontStyle=0;childLayout=stackLayout;horizontal=1;startSize=30;horizontalStack=0;resizeParent=1;resizeParentMax=0;resizeLast=0;collapsible=1;marginBottom=0;whiteSpace=wrap;html=1;" vertex="1" parent="WIyWlLk6GJQsqaUBKTNV-1">
          <mxGeometry x="470" y="880" width="140" height="120" as="geometry" />
        </mxCell>
        <mxCell id="nEtuRUCeHnnsEgfaFvNi-34" value="Number of Agents" style="text;strokeColor=none;fillColor=none;align=left;verticalAlign=middle;spacingLeft=4;spacingRight=4;overflow=hidden;points=[[0,0.5],[1,0.5]];portConstraint=eastwest;rotatable=0;whiteSpace=wrap;html=1;" vertex="1" parent="nEtuRUCeHnnsEgfaFvNi-33">
          <mxGeometry y="30" width="140" height="30" as="geometry" />
        </mxCell>
        <mxCell id="nEtuRUCeHnnsEgfaFvNi-36" value="Algorithms" style="text;strokeColor=none;fillColor=none;align=left;verticalAlign=middle;spacingLeft=4;spacingRight=4;overflow=hidden;points=[[0,0.5],[1,0.5]];portConstraint=eastwest;rotatable=0;whiteSpace=wrap;html=1;" vertex="1" parent="nEtuRUCeHnnsEgfaFvNi-33">
          <mxGeometry y="60" width="140" height="30" as="geometry" />
        </mxCell>
        <mxCell id="nEtuRUCeHnnsEgfaFvNi-37" value="Begin" style="text;strokeColor=none;fillColor=none;align=left;verticalAlign=middle;spacingLeft=4;spacingRight=4;overflow=hidden;points=[[0,0.5],[1,0.5]];portConstraint=eastwest;rotatable=0;whiteSpace=wrap;html=1;" vertex="1" parent="nEtuRUCeHnnsEgfaFvNi-33">
          <mxGeometry y="90" width="140" height="30" as="geometry" />
        </mxCell>
        <mxCell id="nEtuRUCeHnnsEgfaFvNi-63" style="edgeStyle=orthogonalEdgeStyle;rounded=0;orthogonalLoop=1;jettySize=auto;html=1;exitX=0.5;exitY=1;exitDx=0;exitDy=0;exitPerimeter=0;" edge="1" parent="WIyWlLk6GJQsqaUBKTNV-1" source="nEtuRUCeHnnsEgfaFvNi-38" target="nEtuRUCeHnnsEgfaFvNi-62">
          <mxGeometry relative="1" as="geometry" />
        </mxCell>
        <mxCell id="nEtuRUCeHnnsEgfaFvNi-38" value="Start" style="strokeWidth=2;html=1;shape=mxgraph.flowchart.decision;whiteSpace=wrap;" vertex="1" parent="WIyWlLk6GJQsqaUBKTNV-1">
          <mxGeometry x="314" y="1160" width="100" height="100" as="geometry" />
        </mxCell>
        <mxCell id="nEtuRUCeHnnsEgfaFvNi-56" style="edgeStyle=orthogonalEdgeStyle;rounded=0;orthogonalLoop=1;jettySize=auto;html=1;exitX=0;exitY=0.5;exitDx=0;exitDy=0;exitPerimeter=0;entryX=0;entryY=0.5;entryDx=0;entryDy=0;" edge="1" parent="WIyWlLk6GJQsqaUBKTNV-1" source="nEtuRUCeHnnsEgfaFvNi-39" target="nEtuRUCeHnnsEgfaFvNi-31">
          <mxGeometry relative="1" as="geometry" />
        </mxCell>
        <mxCell id="nEtuRUCeHnnsEgfaFvNi-39" value="Stop" style="strokeWidth=2;html=1;shape=mxgraph.flowchart.decision;whiteSpace=wrap;" vertex="1" parent="WIyWlLk6GJQsqaUBKTNV-1">
          <mxGeometry x="200" y="1060" width="100" height="100" as="geometry" />
        </mxCell>
        <mxCell id="nEtuRUCeHnnsEgfaFvNi-40" value="Algorithms" style="swimlane;fontStyle=0;childLayout=stackLayout;horizontal=1;startSize=30;horizontalStack=0;resizeParent=1;resizeParentMax=0;resizeLast=0;collapsible=1;marginBottom=0;whiteSpace=wrap;html=1;" vertex="1" parent="WIyWlLk6GJQsqaUBKTNV-1">
          <mxGeometry x="470" y="1060" width="140" height="240" as="geometry" />
        </mxCell>
        <mxCell id="nEtuRUCeHnnsEgfaFvNi-41" value="BFS&lt;span style=&quot;white-space: pre;&quot;&gt;&#x9;&lt;/span&gt;" style="text;strokeColor=none;fillColor=none;align=left;verticalAlign=middle;spacingLeft=4;spacingRight=4;overflow=hidden;points=[[0,0.5],[1,0.5]];portConstraint=eastwest;rotatable=0;whiteSpace=wrap;html=1;" vertex="1" parent="nEtuRUCeHnnsEgfaFvNi-40">
          <mxGeometry y="30" width="140" height="30" as="geometry" />
        </mxCell>
        <mxCell id="nEtuRUCeHnnsEgfaFvNi-42" value="DFS" style="text;strokeColor=none;fillColor=none;align=left;verticalAlign=middle;spacingLeft=4;spacingRight=4;overflow=hidden;points=[[0,0.5],[1,0.5]];portConstraint=eastwest;rotatable=0;whiteSpace=wrap;html=1;" vertex="1" parent="nEtuRUCeHnnsEgfaFvNi-40">
          <mxGeometry y="60" width="140" height="30" as="geometry" />
        </mxCell>
        <mxCell id="nEtuRUCeHnnsEgfaFvNi-43" value="Dijkstra&#39;s" style="text;strokeColor=none;fillColor=none;align=left;verticalAlign=middle;spacingLeft=4;spacingRight=4;overflow=hidden;points=[[0,0.5],[1,0.5]];portConstraint=eastwest;rotatable=0;whiteSpace=wrap;html=1;" vertex="1" parent="nEtuRUCeHnnsEgfaFvNi-40">
          <mxGeometry y="90" width="140" height="30" as="geometry" />
        </mxCell>
        <mxCell id="nEtuRUCeHnnsEgfaFvNi-45" value="A*" style="text;strokeColor=none;fillColor=none;align=left;verticalAlign=middle;spacingLeft=4;spacingRight=4;overflow=hidden;points=[[0,0.5],[1,0.5]];portConstraint=eastwest;rotatable=0;whiteSpace=wrap;html=1;" vertex="1" parent="nEtuRUCeHnnsEgfaFvNi-40">
          <mxGeometry y="120" width="140" height="30" as="geometry" />
        </mxCell>
        <mxCell id="nEtuRUCeHnnsEgfaFvNi-46" value="Left-hand Walling" style="text;strokeColor=none;fillColor=none;align=left;verticalAlign=middle;spacingLeft=4;spacingRight=4;overflow=hidden;points=[[0,0.5],[1,0.5]];portConstraint=eastwest;rotatable=0;whiteSpace=wrap;html=1;" vertex="1" parent="nEtuRUCeHnnsEgfaFvNi-40">
          <mxGeometry y="150" width="140" height="30" as="geometry" />
        </mxCell>
        <mxCell id="nEtuRUCeHnnsEgfaFvNi-47" value="Right-hand Walling" style="text;strokeColor=none;fillColor=none;align=left;verticalAlign=middle;spacingLeft=4;spacingRight=4;overflow=hidden;points=[[0,0.5],[1,0.5]];portConstraint=eastwest;rotatable=0;whiteSpace=wrap;html=1;" vertex="1" parent="nEtuRUCeHnnsEgfaFvNi-40">
          <mxGeometry y="180" width="140" height="30" as="geometry" />
        </mxCell>
        <mxCell id="nEtuRUCeHnnsEgfaFvNi-48" value="Random" style="text;strokeColor=none;fillColor=none;align=left;verticalAlign=middle;spacingLeft=4;spacingRight=4;overflow=hidden;points=[[0,0.5],[1,0.5]];portConstraint=eastwest;rotatable=0;whiteSpace=wrap;html=1;" vertex="1" parent="nEtuRUCeHnnsEgfaFvNi-40">
          <mxGeometry y="210" width="140" height="30" as="geometry" />
        </mxCell>
        <mxCell id="nEtuRUCeHnnsEgfaFvNi-50" style="edgeStyle=orthogonalEdgeStyle;rounded=0;orthogonalLoop=1;jettySize=auto;html=1;entryX=0;entryY=0.5;entryDx=0;entryDy=0;" edge="1" parent="WIyWlLk6GJQsqaUBKTNV-1" source="nEtuRUCeHnnsEgfaFvNi-36" target="nEtuRUCeHnnsEgfaFvNi-45">
          <mxGeometry relative="1" as="geometry" />
        </mxCell>
        <mxCell id="nEtuRUCeHnnsEgfaFvNi-54" style="edgeStyle=orthogonalEdgeStyle;rounded=0;orthogonalLoop=1;jettySize=auto;html=1;exitX=0;exitY=0.5;exitDx=0;exitDy=0;entryX=0.5;entryY=1;entryDx=0;entryDy=0;" edge="1" parent="WIyWlLk6GJQsqaUBKTNV-1" source="nEtuRUCeHnnsEgfaFvNi-52" target="nEtuRUCeHnnsEgfaFvNi-7">
          <mxGeometry relative="1" as="geometry" />
        </mxCell>
        <mxCell id="nEtuRUCeHnnsEgfaFvNi-52" value="Repeat" style="rhombus;whiteSpace=wrap;html=1;" vertex="1" parent="WIyWlLk6GJQsqaUBKTNV-1">
          <mxGeometry x="120" y="1390" width="80" height="80" as="geometry" />
        </mxCell>
        <mxCell id="nEtuRUCeHnnsEgfaFvNi-53" value="Yes" style="text;html=1;align=center;verticalAlign=middle;resizable=0;points=[];autosize=1;strokeColor=none;fillColor=none;" vertex="1" parent="WIyWlLk6GJQsqaUBKTNV-1">
          <mxGeometry x="160" y="1338" width="40" height="30" as="geometry" />
        </mxCell>
        <mxCell id="nEtuRUCeHnnsEgfaFvNi-55" value="No" style="text;html=1;align=center;verticalAlign=middle;resizable=0;points=[];autosize=1;strokeColor=none;fillColor=none;" vertex="1" parent="WIyWlLk6GJQsqaUBKTNV-1">
          <mxGeometry x="20" y="1368" width="40" height="30" as="geometry" />
        </mxCell>
        <mxCell id="nEtuRUCeHnnsEgfaFvNi-60" value="&lt;font style=&quot;font-size: 18px;&quot;&gt;Ranges for these values need to be explored, with enough variety to contribute to understanding, user experience, and interactivity.&lt;/font&gt;" style="text;html=1;whiteSpace=wrap;overflow=hidden;rounded=0;" vertex="1" parent="WIyWlLk6GJQsqaUBKTNV-1">
          <mxGeometry x="600" y="620" width="190" height="180" as="geometry" />
        </mxCell>
        <mxCell id="nEtuRUCeHnnsEgfaFvNi-61" value="&lt;div&gt;Delay algorithm&lt;/div&gt;&lt;div&gt;(step through)&lt;br&gt;&lt;/div&gt;" style="strokeWidth=2;html=1;shape=mxgraph.flowchart.delay;whiteSpace=wrap;" vertex="1" parent="WIyWlLk6GJQsqaUBKTNV-1">
          <mxGeometry x="374" y="1336.5" width="100" height="60" as="geometry" />
        </mxCell>
        <mxCell id="nEtuRUCeHnnsEgfaFvNi-62" value="Animate Agents on Map" style="strokeWidth=2;html=1;shape=mxgraph.flowchart.display;whiteSpace=wrap;" vertex="1" parent="WIyWlLk6GJQsqaUBKTNV-1">
          <mxGeometry x="250" y="1323" width="120" height="87" as="geometry" />
        </mxCell>
        <mxCell id="nEtuRUCeHnnsEgfaFvNi-64" style="edgeStyle=orthogonalEdgeStyle;rounded=0;orthogonalLoop=1;jettySize=auto;html=1;exitX=0.5;exitY=0;exitDx=0;exitDy=0;exitPerimeter=0;entryX=0.5;entryY=0;entryDx=0;entryDy=0;entryPerimeter=0;" edge="1" parent="WIyWlLk6GJQsqaUBKTNV-1" source="nEtuRUCeHnnsEgfaFvNi-61" target="nEtuRUCeHnnsEgfaFvNi-62">
          <mxGeometry relative="1" as="geometry" />
        </mxCell>
        <mxCell id="nEtuRUCeHnnsEgfaFvNi-65" style="edgeStyle=orthogonalEdgeStyle;rounded=0;orthogonalLoop=1;jettySize=auto;html=1;exitX=0.5;exitY=1;exitDx=0;exitDy=0;exitPerimeter=0;entryX=0.5;entryY=1;entryDx=0;entryDy=0;entryPerimeter=0;" edge="1" parent="WIyWlLk6GJQsqaUBKTNV-1" source="nEtuRUCeHnnsEgfaFvNi-61" target="nEtuRUCeHnnsEgfaFvNi-62">
          <mxGeometry relative="1" as="geometry" />
        </mxCell>
        <mxCell id="nEtuRUCeHnnsEgfaFvNi-67" style="edgeStyle=orthogonalEdgeStyle;rounded=0;orthogonalLoop=1;jettySize=auto;html=1;exitX=0;exitY=0.5;exitDx=0;exitDy=0;exitPerimeter=0;" edge="1" parent="WIyWlLk6GJQsqaUBKTNV-1" source="nEtuRUCeHnnsEgfaFvNi-66" target="nEtuRUCeHnnsEgfaFvNi-62">
          <mxGeometry relative="1" as="geometry" />
        </mxCell>
        <mxCell id="nEtuRUCeHnnsEgfaFvNi-69" style="edgeStyle=orthogonalEdgeStyle;rounded=0;orthogonalLoop=1;jettySize=auto;html=1;exitX=1;exitY=0.5;exitDx=0;exitDy=0;exitPerimeter=0;" edge="1" parent="WIyWlLk6GJQsqaUBKTNV-1" source="nEtuRUCeHnnsEgfaFvNi-66">
          <mxGeometry relative="1" as="geometry">
            <mxPoint x="470" y="1519.8235294117649" as="targetPoint" />
          </mxGeometry>
        </mxCell>
        <mxCell id="nEtuRUCeHnnsEgfaFvNi-66" value="Pause" style="strokeWidth=2;html=1;shape=mxgraph.flowchart.decision;whiteSpace=wrap;" vertex="1" parent="WIyWlLk6GJQsqaUBKTNV-1">
          <mxGeometry x="314" y="1470" width="100" height="100" as="geometry" />
        </mxCell>
        <mxCell id="nEtuRUCeHnnsEgfaFvNi-68" value="No" style="text;html=1;align=center;verticalAlign=middle;resizable=0;points=[];autosize=1;strokeColor=none;fillColor=none;" vertex="1" parent="WIyWlLk6GJQsqaUBKTNV-1">
          <mxGeometry x="250" y="1498" width="40" height="30" as="geometry" />
        </mxCell>
        <mxCell id="nEtuRUCeHnnsEgfaFvNi-70" value="Yes" style="text;html=1;align=center;verticalAlign=middle;resizable=0;points=[];autosize=1;strokeColor=none;fillColor=none;" vertex="1" parent="WIyWlLk6GJQsqaUBKTNV-1">
          <mxGeometry x="410" y="1478" width="40" height="30" as="geometry" />
        </mxCell>
        <mxCell id="nEtuRUCeHnnsEgfaFvNi-71" value="Freeze State" style="strokeWidth=2;html=1;shape=mxgraph.flowchart.delay;whiteSpace=wrap;" vertex="1" parent="WIyWlLk6GJQsqaUBKTNV-1">
          <mxGeometry x="460" y="1498" width="100" height="60" as="geometry" />
        </mxCell>
        <mxCell id="nEtuRUCeHnnsEgfaFvNi-73" value="" style="endArrow=classic;html=1;rounded=0;" edge="1" parent="WIyWlLk6GJQsqaUBKTNV-1">
          <mxGeometry width="50" height="50" relative="1" as="geometry">
            <mxPoint x="220" y="1210" as="sourcePoint" />
            <mxPoint x="314" y="1210" as="targetPoint" />
          </mxGeometry>
        </mxCell>
        <mxCell id="nEtuRUCeHnnsEgfaFvNi-74" value="" style="endArrow=none;html=1;rounded=0;" edge="1" parent="WIyWlLk6GJQsqaUBKTNV-1">
          <mxGeometry width="50" height="50" relative="1" as="geometry">
            <mxPoint x="220" y="1620" as="sourcePoint" />
            <mxPoint x="219.41" y="1210" as="targetPoint" />
          </mxGeometry>
        </mxCell>
        <mxCell id="nEtuRUCeHnnsEgfaFvNi-75" value="" style="endArrow=none;html=1;rounded=0;" edge="1" parent="WIyWlLk6GJQsqaUBKTNV-1">
          <mxGeometry width="50" height="50" relative="1" as="geometry">
            <mxPoint x="220" y="1620" as="sourcePoint" />
            <mxPoint x="510" y="1620" as="targetPoint" />
          </mxGeometry>
        </mxCell>
        <mxCell id="nEtuRUCeHnnsEgfaFvNi-76" value="" style="endArrow=none;html=1;rounded=0;entryX=0.5;entryY=1;entryDx=0;entryDy=0;entryPerimeter=0;" edge="1" parent="WIyWlLk6GJQsqaUBKTNV-1" target="nEtuRUCeHnnsEgfaFvNi-71">
          <mxGeometry width="50" height="50" relative="1" as="geometry">
            <mxPoint x="510" y="1620" as="sourcePoint" />
            <mxPoint x="565" y="1570" as="targetPoint" />
          </mxGeometry>
        </mxCell>
        <mxCell id="nEtuRUCeHnnsEgfaFvNi-88" style="edgeStyle=orthogonalEdgeStyle;rounded=0;orthogonalLoop=1;jettySize=auto;html=1;entryX=0.5;entryY=1;entryDx=0;entryDy=0;" edge="1" parent="WIyWlLk6GJQsqaUBKTNV-1" source="nEtuRUCeHnnsEgfaFvNi-77" target="nEtuRUCeHnnsEgfaFvNi-52">
          <mxGeometry relative="1" as="geometry" />
        </mxCell>
        <mxCell id="nEtuRUCeHnnsEgfaFvNi-77" value="Results" style="strokeWidth=2;html=1;shape=mxgraph.flowchart.display;whiteSpace=wrap;" vertex="1" parent="WIyWlLk6GJQsqaUBKTNV-1">
          <mxGeometry x="510" y="1680" width="100" height="60" as="geometry" />
        </mxCell>
        <mxCell id="nEtuRUCeHnnsEgfaFvNi-78" value="Values" style="swimlane;fontStyle=0;childLayout=stackLayout;horizontal=1;startSize=30;horizontalStack=0;resizeParent=1;resizeParentMax=0;resizeLast=0;collapsible=1;marginBottom=0;whiteSpace=wrap;html=1;" vertex="1" parent="WIyWlLk6GJQsqaUBKTNV-1">
          <mxGeometry x="600" y="1790" width="140" height="120" as="geometry" />
        </mxCell>
        <mxCell id="nEtuRUCeHnnsEgfaFvNi-79" value="Time" style="text;strokeColor=none;fillColor=none;align=left;verticalAlign=middle;spacingLeft=4;spacingRight=4;overflow=hidden;points=[[0,0.5],[1,0.5]];portConstraint=eastwest;rotatable=0;whiteSpace=wrap;html=1;" vertex="1" parent="nEtuRUCeHnnsEgfaFvNi-78">
          <mxGeometry y="30" width="140" height="30" as="geometry" />
        </mxCell>
        <mxCell id="nEtuRUCeHnnsEgfaFvNi-80" value="Cost" style="text;strokeColor=none;fillColor=none;align=left;verticalAlign=middle;spacingLeft=4;spacingRight=4;overflow=hidden;points=[[0,0.5],[1,0.5]];portConstraint=eastwest;rotatable=0;whiteSpace=wrap;html=1;" vertex="1" parent="nEtuRUCeHnnsEgfaFvNi-78">
          <mxGeometry y="60" width="140" height="30" as="geometry" />
        </mxCell>
        <mxCell id="nEtuRUCeHnnsEgfaFvNi-81" value="Position" style="text;strokeColor=none;fillColor=none;align=left;verticalAlign=middle;spacingLeft=4;spacingRight=4;overflow=hidden;points=[[0,0.5],[1,0.5]];portConstraint=eastwest;rotatable=0;whiteSpace=wrap;html=1;" vertex="1" parent="nEtuRUCeHnnsEgfaFvNi-78">
          <mxGeometry y="90" width="140" height="30" as="geometry" />
        </mxCell>
        <mxCell id="nEtuRUCeHnnsEgfaFvNi-82" style="edgeStyle=orthogonalEdgeStyle;rounded=0;orthogonalLoop=1;jettySize=auto;html=1;exitX=0.5;exitY=0;exitDx=0;exitDy=0;entryX=1;entryY=0.5;entryDx=0;entryDy=0;entryPerimeter=0;" edge="1" parent="WIyWlLk6GJQsqaUBKTNV-1" source="nEtuRUCeHnnsEgfaFvNi-78" target="nEtuRUCeHnnsEgfaFvNi-77">
          <mxGeometry relative="1" as="geometry" />
        </mxCell>
        <mxCell id="nEtuRUCeHnnsEgfaFvNi-85" style="edgeStyle=orthogonalEdgeStyle;rounded=0;orthogonalLoop=1;jettySize=auto;html=1;exitX=0;exitY=0.5;exitDx=0;exitDy=0;entryX=0.5;entryY=1;entryDx=0;entryDy=0;entryPerimeter=0;" edge="1" parent="WIyWlLk6GJQsqaUBKTNV-1" source="nEtuRUCeHnnsEgfaFvNi-78" target="nEtuRUCeHnnsEgfaFvNi-77">
          <mxGeometry relative="1" as="geometry" />
        </mxCell>
        <mxCell id="nEtuRUCeHnnsEgfaFvNi-86" value="&lt;h1 style=&quot;margin-top: 0px;&quot;&gt;Needs Update&lt;/h1&gt;&lt;p&gt;&lt;br&gt;&lt;/p&gt;" style="text;html=1;whiteSpace=wrap;overflow=hidden;rounded=0;" vertex="1" parent="WIyWlLk6GJQsqaUBKTNV-1">
          <mxGeometry x="610" y="425" width="180" height="50" as="geometry" />
        </mxCell>
        <mxCell id="nEtuRUCeHnnsEgfaFvNi-87" style="edgeStyle=orthogonalEdgeStyle;rounded=0;orthogonalLoop=1;jettySize=auto;html=1;exitX=1;exitY=0.5;exitDx=0;exitDy=0;exitPerimeter=0;entryX=0.6;entryY=0.167;entryDx=0;entryDy=0;entryPerimeter=0;" edge="1" parent="WIyWlLk6GJQsqaUBKTNV-1" source="nEtuRUCeHnnsEgfaFvNi-61" target="nEtuRUCeHnnsEgfaFvNi-77">
          <mxGeometry relative="1" as="geometry" />
        </mxCell>
      </root>
    </mxGraphModel>
  </diagram>
</mxfile>
